<?xml version="1.0" standalone="no"?>
<!DOCTYPE svg PUBLIC "-//W3C//DTD SVG 20010904//EN"
 "http://www.w3.org/TR/2001/REC-SVG-20010904/DTD/svg10.dtd">
<svg version="1.0" xmlns="http://www.w3.org/2000/svg"
 width="50.000000pt" height="50.000000pt" viewBox="0 0 50.000000 50.000000"
 preserveAspectRatio="xMidYMid meet">

<g transform="translate(0.000000,50.000000) scale(0.100000,-0.100000)"
fill="#000000" stroke="none">
<path d="M50 405 c0 -13 21 -15 130 -15 l130 0 0 -60 0 -60 63 0 c75 0 97 -16
97 -73 0 -46 -16 -55 -41 -23 -27 34 -71 35 -101 1 -30 -35 -86 -35 -116 0
-29 33 -74 33 -100 0 -11 -14 -29 -25 -41 -25 -12 0 -21 -6 -21 -15 0 -9 9
-15 23 -15 13 0 32 -9 42 -20 23 -26 70 -26 92 0 13 15 30 20 63 20 33 0 50
-5 63 -20 22 -26 69 -26 91 -1 10 11 30 21 45 23 24 3 26 7 29 62 3 49 -1 64
-22 95 -13 20 -32 53 -42 74 -16 33 -22 37 -56 37 -27 0 -38 4 -38 15 0 13
-23 15 -145 15 -122 0 -145 -2 -145 -15z m358 -70 c16 -36 17 -35 -28 -35 -38
0 -40 2 -40 30 0 26 4 30 28 30 21 0 32 -7 40 -25z m-223 -195 c0 -16 -6 -26
-19 -28 -25 -5 -39 12 -31 38 10 31 50 24 50 -10z m220 10 c8 -26 -1 -40 -26
-40 -22 0 -34 22 -25 45 8 22 44 18 51 -5z"/>
<path d="M30 345 c0 -12 16 -15 80 -15 64 0 80 3 80 15 0 12 -16 15 -80 15
-64 0 -80 -3 -80 -15z"/>
<path d="M7 294 c-19 -19 0 -25 76 -22 46 2 82 7 82 13 0 11 -147 20 -158 9z"/>
<path d="M33 218 c5 -17 89 -17 95 0 2 8 -11 12 -48 12 -37 0 -50 -4 -47 -12z"/>
</g>
</svg>
